HIERARCHY
ROOT Hips
{
	OFFSET 0.000000 0.000000 0.000000
	CHANNELS 6 Xposition Yposition Zposition Xrotation Yrotation Zrotation
	JOINT LeftUpLeg_virtual
	{
		OFFSET 0.000000 0.000000 0.000000
		CHANNELS 3 Xrotation Yrotation Zrotation
		JOINT LeftUpLeg
		{
			OFFSET 11.394100 -6.187798 -0.413800
			CHANNELS 3 Xrotation Yrotation Zrotation
			JOINT LeftLeg
			{
				OFFSET 0.430247 -32.302673 3.732800
				CHANNELS 3 Xrotation Yrotation Zrotation
				JOINT LeftFoot
				{
					OFFSET -0.430247 -48.264931 -6.423300
					CHANNELS 3 Xrotation Yrotation Zrotation
					JOINT LeftToeBase
					{
						OFFSET 4.230900 -16.068199 23.438400
						CHANNELS 3 Xrotation Yrotation Zrotation
						JOINT LeftToe_End
						{
							OFFSET 4.510700 0.695400 19.974600
							CHANNELS 3 Xrotation Yrotation Zrotation
							End Site
							{
								OFFSET 0 0 0
							}
						}
					}
				}
			}
		}
	}
	JOINT RightUpLeg_virtual
	{
		OFFSET 0.000000 0.000000 0.000000
		CHANNELS 3 Xrotation Yrotation Zrotation
		JOINT RightUpLeg
		{
			OFFSET -11.333700 -6.187798 -0.413800
			CHANNELS 3 Xrotation Yrotation Zrotation
			JOINT RightLeg
			{
				OFFSET -0.430392 -32.302628 3.733000
				CHANNELS 3 Xrotation Yrotation Zrotation
				JOINT RightFoot
				{
					OFFSET 0.430392 -48.264973 -6.423500
					CHANNELS 3 Xrotation Yrotation Zrotation
					JOINT RightToeBase
					{
						OFFSET -4.230900 -16.068199 23.438400
						CHANNELS 3 Xrotation Yrotation Zrotation
						JOINT RightToe_End
						{
							OFFSET -4.510700 0.695400 19.974600
							CHANNELS 3 Xrotation Yrotation Zrotation
							End Site
							{
								OFFSET 0 0 0
							}
						}
					}
				}
			}
		}
	}
	JOINT Spine_virtual
	{
		OFFSET 0.000000 0.000000 0.000000
		CHANNELS 3 Xrotation Yrotation Zrotation
		JOINT Spine
		{
			OFFSET -0.002400 12.777504 0.315300
			CHANNELS 3 Xrotation Yrotation Zrotation
			JOINT Spine1
			{
				OFFSET -0.002067 5.816869 0.032633
				CHANNELS 3 Xrotation Yrotation Zrotation
				JOINT Spine1_split
				{
					OFFSET -0.002067 5.816869 0.032633
					CHANNELS 3 Xrotation Yrotation Zrotation
					JOINT Spine2
					{
						OFFSET -0.002067 5.816869 0.032633
						CHANNELS 3 Xrotation Yrotation Zrotation
						JOINT Neck_virtual
						{
							OFFSET 0.000000 0.000000 0.000000
							CHANNELS 3 Xrotation Yrotation Zrotation
							JOINT Neck
							{
								OFFSET -0.003700 21.199493 -0.826900
								CHANNELS 3 Xrotation Yrotation Zrotation
								JOINT Head
								{
									OFFSET 0.000000 20.442200 4.834800
									CHANNELS 3 Xrotation Yrotation Zrotation
									JOINT HeadTop_End
									{
										OFFSET 0.000000 34.668396 4.968400
										CHANNELS 3 Xrotation Yrotation Zrotation
										End Site
										{
											OFFSET 0 0 0
										}
									}
								}
							}
						}
						JOINT LeftShoulder_virtual
						{
							OFFSET 0.000000 0.000000 0.000000
							CHANNELS 3 Xrotation Yrotation Zrotation
							JOINT LeftShoulder
							{
								OFFSET 3.288150 8.794197 -1.372250
								CHANNELS 3 Xrotation Yrotation Zrotation
								JOINT LeftShoulder_split
								{
									OFFSET 3.288150 8.794197 -1.372250
									CHANNELS 3 Xrotation Yrotation Zrotation
									JOINT LeftArm
									{
										OFFSET 11.953299 -2.279007 -0.146200
										CHANNELS 3 Xrotation Yrotation Zrotation
										JOINT LeftForeArm
										{
											OFFSET 18.448900 0.000000 0.000000
											CHANNELS 3 Xrotation Yrotation Zrotation
											JOINT LeftHand
											{
												OFFSET 29.527798 0.000000 0.000000
												CHANNELS 3 Xrotation Yrotation Zrotation
												End Site
												{
													OFFSET 0 0 0
												}
											}
										}
									}
								}
							}
						}
						JOINT RightShoulder_virtual
						{
							OFFSET 0.000000 0.000000 0.000000
							CHANNELS 3 Xrotation Yrotation Zrotation
							JOINT RightShoulder
							{
								OFFSET -3.249400 8.794197 -1.372250
								CHANNELS 3 Xrotation Yrotation Zrotation
								JOINT RightShoulder_split
								{
									OFFSET -3.249400 8.794197 -1.372250
									CHANNELS 3 Xrotation Yrotation Zrotation
									JOINT RightArm
									{
										OFFSET -11.953299 -2.279007 -0.146200
										CHANNELS 3 Xrotation Yrotation Zrotation
										JOINT RightForeArm
										{
											OFFSET -18.448900 0.000000 0.000000
											CHANNELS 3 Xrotation Yrotation Zrotation
											JOINT RightHand
											{
												OFFSET -29.527802 0.000000 0.000000
												CHANNELS 3 Xrotation Yrotation Zrotation
												End Site
												{
													OFFSET 0 0 0
												}
											}
										}
									}
								}
							}
						}
					}
				}
			}
		}
	}
}
MOTION
Frames: 8
Frame Time: 0.03333333
-0.166085 77.735519 1.929588 0.000000 0.000000 0.000000 5.704288 -4.433851 -21.154689 -78.389630 17.594434 20.086120 96.686881 -1.143037 5.985629 22.135113 2.187655 21.135834 -0.042435 -1.465278 -4.896491 0.000000 0.000000 0.000000 3.206782 -4.532530 -21.204203 -14.852349 -9.105345 -10.864303 51.052802 4.545197 3.976338 18.459396 14.331123 -8.585126 -49.445730 4.351407 -3.103166 0.000000 0.000000 0.000000 -0.088944 0.388038 -19.596554 5.435212 4.825063 2.314802 2.723100 2.192061 1.513588 1.135741 2.243475 0.807044 0.000000 0.000000 0.000000 1.861901 1.120018 2.664525 -7.123972 2.672846 -3.056431 -14.952881 6.488618 3.237516 0.000000 0.000000 0.000000 2.509491 1.697915 1.458613 -0.956549 -6.244649 -5.461587 -1.036260 1.227000 -2.184213 62.763305 -16.892349 -41.587570 10.212236 -76.281342 10.103029 0.000000 0.000000 0.000000 3.753600 2.243146 2.128134 2.926508 -5.129087 8.252614 7.679811 4.370261 -5.860413 -15.422250 21.737765 54.936636 7.988328 77.913081 -7.954752 0.000000 0.000000 0.000000 
-0.018932 79.992043 15.365269 0.000000 0.000000 0.000000 2.986100 -7.126508 -21.510848 -81.693721 16.249385 19.279206 80.365993 1.613552 2.964853 22.884603 4.164032 19.582045 0.716760 -1.426652 -4.287405 0.000000 0.000000 0.000000 2.663827 -9.205780 -21.730588 -9.137005 -10.034970 -11.190445 50.032532 5.341371 3.340412 23.004234 15.253884 -2.887187 -49.662463 4.745164 -3.990309 0.000000 0.000000 0.000000 0.972992 -2.509870 -20.234905 3.366079 6.173297 2.571269 2.513459 2.667149 1.189150 0.858108 4.608047 0.074526 0.000000 0.000000 0.000000 1.856719 1.629487 2.477227 -6.307652 2.145080 -2.860149 -15.726150 7.291860 3.958759 0.000000 0.000000 0.000000 2.264923 2.315519 1.557614 -0.768764 -4.162220 -4.525058 -0.877621 3.000591 -2.179920 65.520659 -14.354812 -40.601312 8.906106 -79.249237 8.112853 0.000000 0.000000 0.000000 2.737409 2.602956 1.778891 2.118690 -3.631816 7.135047 6.705303 5.223861 -6.341964 -23.109388 27.071065 59.102815 68.625199 88.837019 -69.557970 0.000000 0.000000 0.000000 
0.828547 82.647499 31.825075 0.000000 0.000000 0.000000 1.492772 -8.870642 -20.848073 -79.532922 12.608908 13.216088 59.728645 4.632540 1.554715 22.356017 6.240085 17.297574 1.217580 -1.467979 -3.678687 0.000000 0.000000 0.000000 3.025879 -10.159086 -21.110612 -0.495648 -8.472631 -10.743773 47.891203 5.943552 1.750255 26.454832 15.333027 3.471212 -47.195446 4.587286 -3.573794 0.000000 0.000000 0.000000 2.096012 -4.361303 -19.777904 1.639062 8.767956 2.502415 2.356584 3.718191 0.887752 0.748317 4.673377 -0.190940 0.000000 0.000000 0.000000 1.718035 2.662667 2.088151 -5.238333 1.324193 -1.875113 -15.818889 8.755789 4.230734 0.000000 0.000000 0.000000 1.871766 3.520811 1.498192 -0.750300 -1.455522 -3.617742 -0.883716 3.113135 -1.385834 67.578943 -12.057607 -41.997074 7.277953 -83.058160 5.836637 0.000000 0.000000 0.000000 2.076648 3.581091 1.271759 1.435200 -1.790497 6.146544 6.653666 3.650982 -5.873924 -29.056147 32.782678 63.089037 176.108054 78.970504 -177.921264 0.000000 0.000000 0.000000 
2.532099 83.730431 49.222847 0.000000 0.000000 0.000000 0.764325 -8.517019 -19.471688 -73.558515 7.792384 4.458299 43.526880 7.186370 1.430833 19.960862 8.564991 15.894438 1.389387 -1.554650 -3.065168 0.000000 0.000000 0.000000 4.330989 -7.202304 -19.599395 6.910542 -5.471347 -10.389926 47.605391 5.460562 -0.306389 26.932541 12.090461 6.802588 -40.685429 4.114824 -2.379101 0.000000 0.000000 0.000000 1.884772 -3.780519 -18.677425 1.117896 11.653660 1.919913 2.397673 4.808067 0.743320 1.086131 3.050188 0.241354 0.000000 0.000000 0.000000 1.409212 3.670988 1.688153 -4.191869 0.814261 -0.420192 -15.178089 10.781611 4.042169 0.000000 0.000000 0.000000 1.561371 4.692086 1.346888 -0.809022 0.876906 -3.137456 -0.164126 2.294545 -0.702958 66.809659 -11.134088 -45.100046 3.947085 -85.896063 2.331499 0.000000 0.000000 0.000000 1.896082 4.591106 0.746994 0.852169 -0.208415 5.771084 7.596613 1.287138 -4.226121 -28.751941 36.509718 64.577847 177.807268 71.175209 179.833499 0.000000 0.000000 0.000000 
4.984777 82.702972 66.586464 0.000000 0.000000 0.000000 0.058090 -5.338818 -17.468318 -66.690199 3.292653 -3.895524 36.747196 8.862729 1.315568 14.399637 10.531467 16.481800 1.164186 -1.343606 -2.495822 0.000000 0.000000 0.000000 5.751126 -1.531586 -17.936039 8.965314 -2.003113 -10.554091 53.278628 3.523377 -2.091814 24.971037 4.918323 5.728223 -30.091676 3.646963 -0.836595 0.000000 0.000000 0.000000 0.734706 0.065389 -17.049996 1.943541 13.547609 0.868350 2.714112 5.424441 0.683579 0.447668 1.779536 0.607016 0.000000 0.000000 0.000000 1.033206 4.076664 1.376060 -3.342891 0.807016 0.876102 -13.906591 13.035847 3.532597 0.000000 0.000000 0.000000 1.437010 5.174002 1.079931 -0.868412 2.109613 -3.262468 1.241906 1.491683 -0.563222 61.867266 -11.873943 -48.560671 3.244324 -85.749091 2.024984 0.000000 0.000000 0.000000 2.109074 5.020642 0.352943 0.412278 0.772050 6.213298 8.764134 0.301601 -2.072634 -20.237806 36.719285 62.697086 177.605628 68.659275 -179.990115 0.000000 0.000000 0.000000 
8.136214 79.818848 83.427345 0.000000 0.000000 0.000000 -1.251515 -0.729397 -15.315646 -59.000110 0.947036 -9.754279 40.201725 9.485023 0.428182 5.705435 11.348113 18.988858 -0.871757 -0.705977 -2.320909 0.000000 0.000000 0.000000 5.692143 6.103258 -16.890872 2.655718 1.715011 -11.065816 66.557871 0.694075 -3.049738 22.025745 -3.970736 1.570872 -17.695977 3.341937 0.490229 0.000000 0.000000 0.000000 -1.628647 6.280128 -14.671562 3.553557 13.424429 -0.574378 3.217919 5.080954 0.602711 -0.012119 0.834866 -0.127103 0.000000 0.000000 0.000000 0.663935 3.557235 1.127106 -2.676015 1.422481 1.558008 -12.009425 15.786905 3.038588 0.000000 0.000000 0.000000 1.624050 4.598536 0.732967 -0.844525 2.134686 -3.818281 2.222876 0.094839 -1.688924 51.913802 -13.740928 -51.507587 4.221801 -82.102453 4.097838 0.000000 0.000000 0.000000 2.529777 4.473624 0.163694 0.165847 0.665467 7.235996 8.661469 0.441218 0.047224 -5.298673 32.456533 59.372983 176.584842 70.985357 -178.430250 0.000000 0.000000 0.000000 
11.265814 76.597404 100.282661 0.000000 0.000000 0.000000 -3.167673 4.461611 -13.254324 -50.597225 0.909842 -13.559956 49.613548 10.201361 -0.900087 -5.059241 10.729891 23.731827 -4.151730 0.057071 -2.525614 0.000000 0.000000 0.000000 4.803256 15.091605 -15.998523 -11.148806 5.674402 -11.136589 81.939526 -1.815462 -2.808097 19.132521 -11.251196 -2.413360 -8.394371 2.835414 0.636291 0.000000 0.000000 0.000000 -4.713797 13.323395 -12.437605 5.129199 10.986906 -1.860096 3.738991 3.684341 0.488819 0.188848 0.332815 -0.945658 0.000000 0.000000 0.000000 0.391762 2.074682 0.942092 -1.900884 2.580888 1.602298 -9.843533 19.414840 2.800258 0.000000 0.000000 0.000000 2.088271 2.972246 0.435494 -0.750290 1.301242 -4.540955 2.556816 -0.989030 -4.000152 37.618807 -16.343871 -53.168238 3.590787 -76.965550 4.960475 0.000000 0.000000 0.000000 2.838473 2.889837 0.091653 -0.099232 -0.424206 8.102911 6.701503 1.054360 1.660355 11.129345 24.156163 57.547766 174.330005 75.902560 -175.507079 0.000000 0.000000 0.000000 
14.545112 75.105255 117.015518 0.000000 0.000000 0.000000 -4.575415 9.719308 -11.726517 -40.393302 1.602773 -15.539655 59.303500 9.642847 -1.473168 -12.446896 8.466801 27.213881 -9.121113 0.731450 -1.992219 0.000000 0.000000 0.000000 3.591347 23.439879 -15.161241 -29.950349 9.794122 -9.468205 91.818595 -3.182554 -2.541240 17.340086 -14.811089 -4.630620 -4.015472 1.893323 -0.159967 0.000000 0.000000 0.000000 -6.165326 19.224320 -10.946453 5.829091 6.455369 -2.371959 4.100807 1.552894 0.319735 0.212793 0.189290 -1.054554 0.000000 0.000000 0.000000 0.285799 -0.089547 0.766553 -0.741745 3.892504 1.152302 -7.802487 23.272271 2.857571 0.000000 0.000000 0.000000 2.596579 0.671123 0.293757 -0.674463 0.269109 -5.092910 1.810566 -1.073932 -6.667985 21.352527 -18.810722 -52.968056 2.371223 -74.110326 5.092304 0.000000 0.000000 0.000000 2.958851 0.621405 0.080336 -0.360301 -2.382056 7.867372 3.946499 2.314068 2.301862 25.716055 14.486589 57.404421 171.843789 79.169310 -172.380369 0.000000 0.000000 0.000000 
